<svg xmlns="http://www.w3.org/2000/svg" height="26" viewBox="0 0 226 53" width="113">
    <path d="m 23.84 48 h 6.82 v -18.91 h 8.8 v -6.2 h -8.8 v -12.09 h 11.22 v -6.2 h -18.04 z m 21.81 0 h 6.82 v -18.6 h 2.36 c 3.1 0 4.28 1.3 4.28 5.33 v 7.94 c 0 3.53 0.24 4.21 0.62 5.33 h 6.94 c -0.68 -1.61 -0.74 -3.16 -0.74 -5.27 v -7.63 c 0 -4.89 -1.12 -8.12 -4.53 -9.17 v -0.13 c 3.04 -1.24 4.46 -4.09 4.46 -8.55 v -2.67 c 0 -6.69 -3.03 -9.98 -10.1 -9.98 h -10.11 z m 6.82 -24.8 v -12.4 h 3.1 c 2.42 0 3.47 1.36 3.47 4.46 v 3.35 c 0 3.47 -1.55 4.59 -4.09 4.59 z m 16.86 24.8 h 6.32 l 1.24 -8.49 h 7.75 v -0.13 l 1.24 8.62 h 6.82 l -7.07 -43.4 h -9.23 z m 8.37 -14.38 l 2.97 -21.46 h 0.13 l 3.04 21.46 z m 28.32 15 c 6.7 0 10.17 -3.97 10.17 -10.91 v -14.2 h -9.86 v 6.2 h 3.41 v 8.49 c 0 3.1 -1.36 4.22 -3.53 4.22 s -3.53 -1.12 -3.53 -4.22 v -23.74 c 0 -3.1 1.36 -4.28 3.53 -4.28 s 3.53 1.18 3.53 4.28 v 4.15 h 6.45 v -3.72 c 0 -6.94 -3.47 -10.91 -10.17 -10.91 c -6.69 0 -10.16 3.97 -10.16 10.91 v 22.82 c 0 6.94 3.47 10.91 10.16 10.91 z m 15.06 -0.62 h 5.95 v -32.86 h 0.13 l 4.96 32.86 h 5.7 l 4.96 -32.86 h 0.13 v 32.86 h 6.44 v -43.4 h -9.73 l -4.34 31.06 h -0.12 l -4.34 -31.06 h -9.74 z m 33.85 0 h 18.6 v -6.2 h -11.78 v -13.33 h 9.36 v -6.2 h -9.36 v -11.47 h 11.78 v -6.2 h -18.6 z m 22.99 0 h 6.08 v -31.68 h 0.12 l 8.18 31.68 h 7.01 v -43.4 h -6.08 v 25.98 h -0.12 l -6.63 -25.98 h -8.56 z m 32.29 0 h 6.82 v -37.2 h 7.13 v -6.2 h -21.08 v 6.2 h 7.13 z"
          fill="#fff" fill-rule="evenodd"/>
</svg>