<svg width="64" height="64" viewBox="0 0 64 64" fill="none" xmlns="http://www.w3.org/2000/svg">
<rect width="64" height="64" rx="14" fill="black"/>
<path fill-rule="evenodd" clip-rule="evenodd" d="M11.5 19.1083V24.2167H12.6145H13.7291V20.2229V16.2291H20.3235H26.9179V15.1145V14H19.209H11.5V19.1083ZM36.9488 15.1145V16.2291H43.5395H50.1302L50.1804 20.1765L50.2305 24.1238H51.3451H52.4596L52.5091 19.0619L52.5585 14H44.7537H36.9488V15.1145ZM26.9179 31.8357V39.6405L31.9798 39.5911L37.0417 39.5417L37.0978 38.5665L37.1541 37.5913H33.1505H29.147V30.8111V24.0309H28.0325H26.9179V31.8357ZM11.5 44.5572V49.6655H19.209H26.9179V48.551V47.4364H20.3235H13.7291V43.4426V39.4488H12.6145H11.5V44.5572ZM50.2696 39.5646C50.1971 39.6372 50.1377 41.4379 50.1377 43.5665V47.4364H43.5433H36.9488V48.551V49.6655H44.7537H52.5585L52.5091 44.6036L52.4596 39.5417L51.4305 39.4871C50.8645 39.4572 50.3422 39.4919 50.2696 39.5646Z" fill="white"/>
</svg>
